<svg xmlns="http://www.w3.org/2000/svg" width="31.823" height="26.432" viewBox="0 0 31.823 26.432">
  <g id="back" transform="translate(0 -41.674)">
    <g id="Grupo_8" data-name="Grupo 8" transform="translate(0 41.674)">
      <g id="Grupo_7" data-name="Grupo 7">
        <path id="Caminho_7" data-name="Caminho 7" d="M30.034,52.394l.05.011H8.789L15.483,45.7a1.758,1.758,0,0,0,0-2.472l-1.042-1.042a1.742,1.742,0,0,0-2.459,0L.507,53.655a1.754,1.754,0,0,0,0,2.468L11.982,67.6a1.744,1.744,0,0,0,2.459,0l1.042-1.042a1.724,1.724,0,0,0,.508-1.229,1.672,1.672,0,0,0-.508-1.206l-6.77-6.746H30.058a1.8,1.8,0,0,0,1.765-1.785V54.115A1.769,1.769,0,0,0,30.034,52.394Z" transform="translate(0 -41.674)" fill="#fff"/>
      </g>
    </g>
  </g>
</svg>
