<svg xmlns="http://www.w3.org/2000/svg" width="34.943" height="27.808" viewBox="0 0 34.943 27.808">
  <g id="home" transform="translate(0 -38.286)">
    <g id="Grupo_3" data-name="Grupo 3" transform="translate(0 38.286)">
      <g id="Grupo_2" data-name="Grupo 2" transform="translate(0 0)">
        <path id="Caminho_2" data-name="Caminho 2" d="M66.008,98.528,53.545,108.8a.3.3,0,0,1-.011.065.3.3,0,0,0-.011.065v10.4a1.407,1.407,0,0,0,1.387,1.388h8.322V112.4h5.549v8.323H77.1a1.409,1.409,0,0,0,1.388-1.388v-10.4a.3.3,0,0,0-.022-.13Z" transform="translate(-48.536 -92.914)" fill="#fff"/>
        <path id="Caminho_3" data-name="Caminho 3" d="M34.7,51.832l-4.746-3.945V39.044a.668.668,0,0,0-.694-.693H25.1a.667.667,0,0,0-.694.693v4.226l-5.288-4.422a2.689,2.689,0,0,0-3.294,0L.24,51.832A.63.63,0,0,0,0,52.3a.7.7,0,0,0,.152.51l1.344,1.6a.739.739,0,0,0,.455.239.806.806,0,0,0,.52-.152l15-12.506,15,12.506a.668.668,0,0,0,.455.151h.065a.74.74,0,0,0,.455-.238l1.344-1.6a.7.7,0,0,0,.151-.51A.632.632,0,0,0,34.7,51.832Z" transform="translate(0 -38.286)" fill="#fff"/>
      </g>
    </g>
  </g>
</svg>
