<svg xmlns="http://www.w3.org/2000/svg" width="29" height="27.633" viewBox="0 0 29 27.633">
  <g id="star" transform="translate(26 -5.318)">
    <path id="Caminho_6" data-name="Caminho 6" d="M28.975,11.835a.52.52,0,0,0-.419-.354l-9.39-1.365-4.2-8.509a.518.518,0,0,0-.93,0l-4.2,8.509L.445,11.482a.519.519,0,0,0-.288.885l6.8,6.624-1.6,9.353a.52.52,0,0,0,.206.508.515.515,0,0,0,.547.039l8.4-4.415,8.4,4.415a.519.519,0,0,0,.753-.547l-1.6-9.352,6.8-6.624A.52.52,0,0,0,28.975,11.835Z" transform="translate(-26 4)" fill="#fff"/>
  </g>
</svg>
